<svg width="21" height="20" viewBox="0 0 21 20" fill="none" xmlns="http://www.w3.org/2000/svg">
<path d="M19.2988 9.50003C19.3023 10.8199 18.9939 12.1219 18.3988 13.3C17.6933 14.7118 16.6086 15.8992 15.2663 16.7293C13.924 17.5594 12.3771 17.9994 10.7988 18C9.47896 18.0035 8.17694 17.6951 6.99883 17.1L1.29883 19L3.19883 13.3C2.60376 12.1219 2.29539 10.8199 2.29883 9.50003C2.29944 7.92179 2.73944 6.37488 3.56955 5.03258C4.39965 3.69028 5.58708 2.6056 6.99883 1.90003C8.17694 1.30496 9.47896 0.996587 10.7988 1.00003H11.2988C13.3832 1.11502 15.3519 1.99479 16.828 3.47089C18.3041 4.94699 19.1838 6.91568 19.2988 9.00003V9.50003Z" stroke="#4ADCDC" stroke-width="2" stroke-linecap="round" stroke-linejoin="round"/>
</svg>
