<svg width="25" height="25" viewBox="0 0 25 25" fill="none" xmlns="http://www.w3.org/2000/svg">
<g id="Iconly/Light-Outline/Notification">
<g id="Notification">
<g id="Group 3">
<mask id="mask0" mask-type="alpha" maskUnits="userSpaceOnUse" x="3" y="1" width="19" height="18">
<path id="Clip 2" fill-rule="evenodd" clip-rule="evenodd" d="M3.5 1.5H21.9969V18.848H3.5V1.5Z" fill="white"/>
</mask>
<g mask="url(#mask0)">
<path id="Fill 1" fill-rule="evenodd" clip-rule="evenodd" d="M12.747 3C9.25201 3 6.81601 5.738 6.81601 8.195C6.81601 10.274 6.23901 11.235 5.72901 12.083C5.32001 12.764 4.99701 13.302 4.99701 14.471C5.16401 16.357 6.40901 17.348 12.747 17.348C19.05 17.348 20.334 16.313 20.5 14.406C20.497 13.302 20.174 12.764 19.765 12.083C19.255 11.235 18.678 10.274 18.678 8.195C18.678 5.738 16.242 3 12.747 3ZM12.747 18.848C8.07101 18.848 3.84501 18.518 3.50001 14.535C3.49701 12.887 4.00001 12.049 4.44401 11.311C4.89301 10.563 5.31601 9.858 5.31601 8.195C5.31601 4.962 8.30201 1.5 12.747 1.5C17.192 1.5 20.178 4.962 20.178 8.195C20.178 9.858 20.601 10.563 21.05 11.311C21.494 12.049 21.997 12.887 21.997 14.471C21.648 18.518 17.423 18.848 12.747 18.848Z" fill="black"/>
</g>
</g>
<path id="Fill 4" fill-rule="evenodd" clip-rule="evenodd" d="M12.698 23H12.696C11.575 22.999 10.514 22.505 9.70903 21.608C9.43203 21.301 9.45703 20.826 9.76503 20.55C10.073 20.272 10.547 20.297 10.824 20.606C11.342 21.183 12.007 21.5 12.697 21.5H12.698C13.391 21.5 14.059 21.183 14.578 20.605C14.856 20.298 15.33 20.273 15.637 20.55C15.945 20.827 15.97 21.302 15.693 21.609C14.885 22.506 13.822 23 12.698 23Z" fill="black"/>
</g>
</g>
</svg>
