<svg width="13" height="13" viewBox="0 0 13 13" fill="none" xmlns="http://www.w3.org/2000/svg">
<path d="M0.994854 0.994854C1.2738 0.715908 1.72606 0.715908 2.00501 0.994854L6.49993 5.48922L10.9949 0.994854C11.2523 0.737366 11.6575 0.717559 11.9377 0.935433L12.005 0.994854C12.284 1.2738 12.284 1.72606 12.005 2.00501L7.51064 6.49993L12.005 10.9949C12.2625 11.2523 12.2823 11.6575 12.0644 11.9377L12.005 12.005C11.7261 12.284 11.2738 12.284 10.9949 12.005L6.49993 7.51064L2.00501 12.005C1.74752 12.2625 1.34235 12.2823 1.06215 12.0644L0.994854 12.005C0.715908 11.7261 0.715908 11.2738 0.994854 10.9949L5.48922 6.49993L0.994854 2.00501C0.737366 1.74752 0.717559 1.34235 0.935433 1.06215L0.994854 0.994854Z" fill="white"/>
</svg>
