<svg width="25" height="24" viewBox="0 0 25 24" fill="none" xmlns="http://www.w3.org/2000/svg">
<g id="Iconly/Light-Outline/Hide">
<g id="Hide">
<path id="Fill 1" fill-rule="evenodd" clip-rule="evenodd" d="M10.2609 15.6172C10.0689 15.6172 9.87694 15.5442 9.73094 15.3972C8.99294 14.6602 8.58594 13.6802 8.58594 12.6382C8.58594 10.4782 10.3419 8.72119 12.4999 8.72119C13.5379 8.72119 14.5459 9.14019 15.2649 9.87119C15.5549 10.1672 15.5519 10.6412 15.2559 10.9312C14.9609 11.2232 14.4869 11.2182 14.1959 10.9242C13.7569 10.4772 13.1389 10.2212 12.4999 10.2212C11.1689 10.2212 10.0859 11.3052 10.0859 12.6382C10.0859 13.2792 10.3369 13.8832 10.7909 14.3372C11.0839 14.6302 11.0839 15.1042 10.7919 15.3972C10.6449 15.5442 10.4529 15.6172 10.2609 15.6172Z" fill="#292929"/>
<path id="Fill 3" fill-rule="evenodd" clip-rule="evenodd" d="M13.0676 16.4912C12.7126 16.4912 12.3966 16.2372 12.3306 15.8752C12.2566 15.4682 12.5266 15.0772 12.9346 15.0032C13.9146 14.8252 14.6906 14.0472 14.8666 13.0662C14.9406 12.6592 15.3306 12.3912 15.7376 12.4612C16.1456 12.5342 16.4166 12.9242 16.3436 13.3322C16.0566 14.9252 14.7946 16.1892 13.2026 16.4792C13.1576 16.4872 13.1116 16.4912 13.0676 16.4912Z" fill="#292929"/>
<g id="Group 7">
<mask id="mask0" mask-type="alpha" maskUnits="userSpaceOnUse" x="2" y="4" width="17" height="15">
<path id="Clip 6" fill-rule="evenodd" clip-rule="evenodd" d="M2.5 4.62439H18.5862V18.7225H2.5V4.62439Z" fill="white"/>
</mask>
<g mask="url(#mask0)">
<path id="Fill 5" fill-rule="evenodd" clip-rule="evenodd" d="M7.1545 18.7225C6.9925 18.7225 6.8295 18.6695 6.6915 18.5625C5.0005 17.2345 3.5715 15.2875 2.5615 12.9335C2.4795 12.7435 2.4795 12.5295 2.5615 12.3405C3.5825 9.97652 5.0205 8.01952 6.7205 6.68252C10.1865 3.93952 14.8005 3.93052 18.3015 6.70252C18.6265 6.95952 18.6815 7.43152 18.4245 7.75652C18.1665 8.07952 17.6965 8.13652 17.3705 7.87852C14.4045 5.53052 10.5835 5.53852 7.6495 7.86052C6.2135 8.99052 4.9805 10.6365 4.0705 12.6385C4.9715 14.6285 6.1935 16.2645 7.6185 17.3825C7.9445 17.6385 8.0005 18.1105 7.7445 18.4355C7.5965 18.6235 7.3765 18.7225 7.1545 18.7225Z" fill="#292929"/>
</g>
</g>
<g id="Group 10">
<mask id="mask1" mask-type="alpha" maskUnits="userSpaceOnUse" x="9" y="8" width="14" height="13">
<path id="Clip 9" fill-rule="evenodd" clip-rule="evenodd" d="M9.2168 8.74121H22.4993V20.6894H9.2168V8.74121Z" fill="white"/>
</mask>
<g mask="url(#mask1)">
<path id="Fill 8" fill-rule="evenodd" clip-rule="evenodd" d="M12.4994 20.6894C11.5624 20.6894 10.6304 20.5374 9.73043 20.2384C9.33743 20.1074 9.12443 19.6824 9.25543 19.2894C9.38643 18.8954 9.80943 18.6864 10.2044 18.8144C10.9514 19.0634 11.7234 19.1894 12.4994 19.1894C15.9274 19.1894 19.0604 16.7474 20.9294 12.6364C20.4734 11.6374 19.9424 10.7324 19.3484 9.94242C19.0994 9.61142 19.1654 9.14042 19.4964 8.89142C19.8264 8.64242 20.2974 8.71042 20.5464 9.04042C21.2704 10.0014 21.9064 11.1124 22.4374 12.3384C22.5204 12.5284 22.5204 12.7444 22.4374 12.9334C20.3414 17.7904 16.6264 20.6894 12.4994 20.6894Z" fill="#292929"/>
</g>
</g>
<g id="Group 13">
<mask id="mask2" mask-type="alpha" maskUnits="userSpaceOnUse" x="3" y="4" width="19" height="18">
<path id="Clip 12" fill-rule="evenodd" clip-rule="evenodd" d="M3.86328 4.00037H21.1368V21.2734H3.86328V4.00037Z" fill="white"/>
</mask>
<g mask="url(#mask2)">
<path id="Fill 11" fill-rule="evenodd" clip-rule="evenodd" d="M4.61303 21.2734C4.42103 21.2734 4.22903 21.2004 4.08303 21.0534C3.79003 20.7604 3.79003 20.2864 4.08303 19.9934L19.857 4.21938C20.15 3.92638 20.624 3.92638 20.917 4.21938C21.21 4.51238 21.21 4.98738 20.917 5.28038L5.14303 21.0534C4.99703 21.2004 4.80503 21.2734 4.61303 21.2734Z" fill="#292929"/>
</g>
</g>
</g>
</g>
</svg>
