<svg width="25" height="24" viewBox="0 0 25 24" fill="none" xmlns="http://www.w3.org/2000/svg">
<g id="Iconly/Light-Outline/Show">
<g id="Show">
<path id="Fill 1" fill-rule="evenodd" clip-rule="evenodd" d="M12.4989 9.64136C11.1689 9.64136 10.0879 10.7234 10.0879 12.0534C10.0879 13.3824 11.1689 14.4634 12.4989 14.4634C13.8289 14.4634 14.9109 13.3824 14.9109 12.0534C14.9109 10.7234 13.8289 9.64136 12.4989 9.64136ZM12.4989 15.9634C10.3419 15.9634 8.58789 14.2094 8.58789 12.0534C8.58789 9.89636 10.3419 8.14136 12.4989 8.14136C14.6559 8.14136 16.4109 9.89636 16.4109 12.0534C16.4109 14.2094 14.6559 15.9634 12.4989 15.9634Z" fill="#292929"/>
<g id="Group 5">
<mask id="mask0" mask-type="alpha" maskUnits="userSpaceOnUse" x="2" y="4" width="21" height="17">
<path id="Clip 4" fill-rule="evenodd" clip-rule="evenodd" d="M2.5 4.00024H22.4998V20.1052H2.5V4.00024Z" fill="white"/>
</mask>
<g mask="url(#mask0)">
<path id="Fill 3" fill-rule="evenodd" clip-rule="evenodd" d="M4.06975 12.0525C5.92975 16.1615 9.06275 18.6045 12.4998 18.6055C15.9368 18.6045 19.0697 16.1615 20.9298 12.0525C19.0697 7.94451 15.9368 5.50151 12.4998 5.50051C9.06375 5.50151 5.92975 7.94451 4.06975 12.0525ZM12.5017 20.1055H12.4978H12.4967C8.36075 20.1025 4.64675 17.2035 2.56075 12.3485C2.47975 12.1595 2.47975 11.9455 2.56075 11.7565C4.64675 6.90251 8.36175 4.00351 12.4967 4.00051C12.4987 3.99951 12.4987 3.99951 12.4998 4.00051C12.5017 3.99951 12.5017 3.99951 12.5028 4.00051C16.6388 4.00351 20.3527 6.90251 22.4387 11.7565C22.5208 11.9455 22.5208 12.1595 22.4387 12.3485C20.3537 17.2035 16.6388 20.1025 12.5028 20.1055H12.5017Z" fill="#292929"/>
</g>
</g>
</g>
</g>
</svg>
