<svg width="21" height="20" viewBox="0 0 21 20" fill="none" xmlns="http://www.w3.org/2000/svg">
<path d="M19.9922 19.0583C18.8109 19.0301 17.6578 19.0301 16.4766 19.0583C16.2234 19.0583 16.1672 19.002 16.1672 18.7489C16.1672 16.6676 16.1672 14.5583 16.1672 12.477C16.1672 11.9989 16.1391 11.5208 15.9984 11.0708C15.5766 9.60826 13.8891 9.07389 12.6797 10.0583C12.0328 10.5645 11.7797 11.2676 11.7797 12.1114C11.7797 14.0801 11.7797 16.0489 11.7797 18.0176C11.7797 18.2708 11.7516 18.5239 11.7797 18.8051C11.8078 19.0301 11.6953 19.0864 11.4984 19.0583C10.2891 19.0583 9.10781 19.0583 7.89844 19.0583C7.67344 19.0583 7.61719 19.002 7.61719 18.777C7.64531 17.0051 7.64531 15.2333 7.64531 13.4333C7.64531 11.2395 7.64531 9.04576 7.61719 6.88014C7.61719 6.62701 7.67344 6.57076 7.89844 6.57076C9.10781 6.57076 10.2891 6.57076 11.4984 6.57076C11.7234 6.57076 11.7797 6.62701 11.7797 6.85201C11.7797 7.30201 11.7797 7.75201 11.7797 8.28639C11.8641 8.20201 11.8922 8.17389 11.9203 8.14576C13.0172 6.54264 14.5641 6.09264 16.3922 6.37389C18.5016 6.71139 19.8516 8.17389 20.1891 10.4239C20.2734 10.9583 20.3016 11.4926 20.3016 12.027C20.3016 14.277 20.3016 16.4989 20.3016 18.7489C20.3016 18.9739 20.2453 19.0583 19.9922 19.0583Z" fill="white"/>
<path d="M5.36875 12.8146C5.36875 14.7833 5.36875 16.7521 5.36875 18.7208C5.36875 18.9739 5.3125 19.0583 5.05938 19.0583C3.87813 19.0302 2.69688 19.0583 1.51562 19.0583C1.29063 19.0583 1.23438 19.0021 1.23438 18.7771C1.23438 14.8114 1.23438 10.8177 1.23438 6.85205C1.23438 6.65518 1.29063 6.5708 1.51562 6.5708C2.725 6.5708 3.93438 6.5708 5.14375 6.5708C5.39688 6.5708 5.425 6.65518 5.425 6.88018C5.36875 8.84893 5.36875 10.8177 5.36875 12.8146Z" fill="white"/>
<path d="M5.56656 3.30822C5.28531 4.43322 4.13219 5.08009 2.81031 4.85509C1.40406 4.63009 0.616561 3.25197 1.12281 1.90197C1.46031 1.05822 2.27594 0.551968 3.31656 0.580093C4.89156 0.551968 5.93219 1.81759 5.56656 3.30822Z" fill="white"/>
</svg>
