<svg width="23" height="23" viewBox="0 0 23 23" fill="none" xmlns="http://www.w3.org/2000/svg">
<path d="M7.7506 11.5645C7.7506 9.49346 9.42901 7.81415 11.5 7.81415C13.571 7.81415 15.2503 9.49346 15.2503 11.5645C15.2503 13.6354 13.571 15.3148 11.5 15.3148C9.42901 15.3148 7.7506 13.6354 7.7506 11.5645ZM5.72326 11.5645C5.72326 14.755 8.3095 17.3412 11.5 17.3412C14.6905 17.3412 17.2767 14.755 17.2767 11.5645C17.2767 8.37395 14.6905 5.78771 11.5 5.78771C8.3095 5.78771 5.72326 8.37395 5.72326 11.5645ZM16.1554 5.55866C16.1553 5.82567 16.2344 6.08671 16.3826 6.30877C16.5309 6.53084 16.7417 6.70396 16.9883 6.80623C17.2349 6.90851 17.5064 6.93535 17.7683 6.88337C18.0302 6.83138 18.2708 6.7029 18.4596 6.51418C18.6485 6.32545 18.7772 6.08496 18.8294 5.8231C18.8816 5.56125 18.855 5.2898 18.7529 5.04308C18.6508 4.79636 18.4778 4.58545 18.2559 4.43702C18.034 4.28859 17.773 4.20931 17.506 4.2092H17.5054C17.1475 4.20937 16.8043 4.35158 16.5512 4.6046C16.2981 4.85762 16.1557 5.20077 16.1554 5.55866ZM6.955 20.7217C5.85817 20.6717 5.26201 20.489 4.86583 20.3347C4.34059 20.1302 3.96583 19.8867 3.57181 19.4932C3.17779 19.0997 2.93389 18.7253 2.73031 18.2001C2.57587 17.8041 2.39317 17.2077 2.34331 16.1109C2.28877 14.9251 2.27788 14.5688 2.27788 11.5645C2.27788 8.56025 2.28967 8.20502 2.34331 7.01819C2.39326 5.92136 2.57731 5.32619 2.73031 4.92902C2.93479 4.40378 3.17833 4.02902 3.57181 3.635C3.96529 3.24098 4.33969 2.99708 4.86583 2.7935C5.26183 2.63906 5.85817 2.45636 6.955 2.4065C8.14084 2.35196 8.49706 2.34107 11.5 2.34107C14.5029 2.34107 14.8595 2.35286 16.0463 2.4065C17.1432 2.45645 17.7383 2.6405 18.1355 2.7935C18.6608 2.99708 19.0355 3.24152 19.4295 3.635C19.8236 4.02848 20.0666 4.40378 20.271 4.92902C20.4255 5.32502 20.6082 5.92136 20.658 7.01819C20.7126 8.20502 20.7235 8.56025 20.7235 11.5645C20.7235 14.5688 20.7126 14.9241 20.658 16.1109C20.6081 17.2077 20.4245 17.8039 20.271 18.2001C20.0666 18.7253 19.823 19.1001 19.4295 19.4932C19.0361 19.8863 18.6608 20.1302 18.1355 20.3347C17.7395 20.4891 17.1432 20.6718 16.0463 20.7217C14.8605 20.7762 14.5043 20.7871 11.5 20.7871C8.49571 20.7871 8.14048 20.7762 6.955 20.7217ZM6.86185 0.382583C5.66422 0.437123 4.84585 0.627023 4.13116 0.905123C3.391 1.19231 2.76442 1.5776 2.13829 2.20274C1.51216 2.82788 1.12786 3.45545 0.84067 4.19561C0.56257 4.91075 0.37267 5.72867 0.31813 6.9263C0.26269 8.12582 0.25 8.50931 0.25 11.5645C0.25 14.6196 0.26269 15.0031 0.31813 16.2026C0.37267 17.4003 0.56257 18.2182 0.84067 18.9333C1.12786 19.673 1.51225 20.3013 2.13829 20.9262C2.76433 21.551 3.391 21.9358 4.13116 22.2238C4.8472 22.5019 5.66422 22.6918 6.86185 22.7463C8.062 22.8009 8.44486 22.8145 11.5 22.8145C14.5551 22.8145 14.9386 22.8018 16.1381 22.7463C17.3359 22.6918 18.1537 22.5019 18.8688 22.2238C19.6085 21.9358 20.2356 21.5513 20.8617 20.9262C21.4878 20.301 21.8713 19.673 22.1593 18.9333C22.4374 18.2182 22.6282 17.4002 22.6819 16.2026C22.7364 15.0022 22.7491 14.6196 22.7491 11.5645C22.7491 8.50931 22.7364 8.12582 22.6819 6.9263C22.6273 5.72858 22.4374 4.9103 22.1593 4.19561C21.8713 3.4559 21.4868 2.82887 20.8617 2.20274C20.2366 1.57661 19.6086 1.19231 18.8697 0.905123C18.1537 0.627023 17.3358 0.436223 16.139 0.382583C14.9395 0.328043 14.556 0.314453 11.5009 0.314453C8.44576 0.314453 8.062 0.327143 6.86185 0.382583Z" fill="white"/>
</svg>
