<svg width="25" height="25" viewBox="0 0 25 25" fill="none" xmlns="http://www.w3.org/2000/svg">
<g id="Iconly/Light-Outline/Heart">
<g id="Heart">
<g id="Group 3">
<mask id="mask0" mask-type="alpha" maskUnits="userSpaceOnUse" x="2" y="3" width="21" height="21">
<path id="Clip 2" fill-rule="evenodd" clip-rule="evenodd" d="M2.5 3.49988H22.9725V23.0009H2.5V3.49988Z" fill="white"/>
</mask>
<g mask="url(#mask0)">
<path id="Fill 1" fill-rule="evenodd" clip-rule="evenodd" d="M4.32396 12.623C5.72596 16.985 11.265 20.512 12.737 21.385C14.214 20.503 19.793 16.937 21.15 12.627C22.041 9.841 21.214 6.312 17.928 5.253C16.336 4.742 14.479 5.053 13.197 6.045C12.929 6.251 12.557 6.255 12.287 6.051C10.929 5.03 9.15496 4.731 7.53796 5.253C4.25696 6.311 3.43296 9.84 4.32396 12.623ZM12.738 23.001C12.614 23.001 12.491 22.971 12.379 22.91C12.066 22.739 4.69296 18.675 2.89596 13.081C2.89496 13.081 2.89496 13.08 2.89496 13.08C1.76696 9.558 3.02296 5.132 7.07796 3.825C8.98196 3.209 11.057 3.48 12.735 4.539C14.361 3.511 16.521 3.227 18.387 3.825C22.446 5.134 23.706 9.559 22.579 13.08C20.84 18.61 13.413 22.735 13.098 22.908C12.986 22.97 12.862 23.001 12.738 23.001Z" fill="black"/>
</g>
</g>
<path id="Fill 4" fill-rule="evenodd" clip-rule="evenodd" d="M18.6537 11.1249C18.2667 11.1249 17.9387 10.8279 17.9067 10.4359C17.8407 9.6139 17.2907 8.9199 16.5077 8.6669C16.1127 8.5389 15.8967 8.1159 16.0237 7.7229C16.1527 7.3289 16.5717 7.1149 16.9677 7.2389C18.3307 7.6799 19.2857 8.8869 19.4027 10.3139C19.4357 10.7269 19.1287 11.0889 18.7157 11.1219C18.6947 11.1239 18.6747 11.1249 18.6537 11.1249Z" fill="black"/>
</g>
</g>
</svg>
