<svg width="14" height="25" viewBox="0 0 14 25" fill="none" xmlns="http://www.w3.org/2000/svg">
<path d="M6.99918 4.19458C8.4134 4.19458 9.56375 5.34493 9.56375 6.75914C9.56375 8.17218 8.4131 9.32253 6.99918 9.32253C5.58585 9.32253 4.43521 8.17218 4.43521 6.75914C4.43491 5.34463 5.58615 4.19458 6.99918 4.19458ZM6.99918 12.9509C10.4152 12.9509 13.1933 10.1737 13.1933 6.75914C13.1933 3.34278 10.4155 0.564453 6.99918 0.564453C3.58341 0.564453 0.805084 3.34308 0.805084 6.75914C0.805084 10.1737 3.58341 12.9509 6.99918 12.9509ZM9.50505 18.0032C10.7793 17.713 11.9953 17.2095 13.1017 16.514C13.509 16.2577 13.7978 15.8502 13.9046 15.3809C14.0114 14.9117 13.9275 14.4193 13.6712 14.012C13.5445 13.8101 13.3792 13.6352 13.1848 13.4972C12.9904 13.3593 12.7707 13.261 12.5383 13.208C12.3059 13.155 12.0653 13.1484 11.8304 13.1885C11.5954 13.2285 11.3706 13.3145 11.1689 13.4415C8.63132 15.0369 5.36527 15.0357 2.82976 13.4415C2.62808 13.3145 2.40333 13.2285 2.16837 13.1884C1.93341 13.1483 1.69286 13.1549 1.46047 13.2079C1.22808 13.2609 1.00841 13.3592 0.814047 13.4972C0.619683 13.6351 0.454431 13.8101 0.327749 14.012C0.0714127 14.4192 -0.0126826 14.9115 0.0939574 15.3807C0.200597 15.8499 0.489239 16.2576 0.8964 16.514C2.00271 17.2093 3.21847 17.7127 4.49243 18.0032L1.02982 21.4664C0.689538 21.8068 0.498418 22.2684 0.498502 22.7498C0.498585 23.2311 0.689865 23.6926 1.03026 24.0329C1.37066 24.3732 1.83229 24.5643 2.3136 24.5642C2.79491 24.5641 3.25648 24.3729 3.59676 24.0325L6.99859 20.63L10.4025 24.0328C10.5708 24.2013 10.7707 24.335 10.9907 24.4263C11.2107 24.5175 11.4466 24.5645 11.6848 24.5645C11.923 24.5645 12.1588 24.5175 12.3789 24.4263C12.5989 24.335 12.7988 24.2013 12.9671 24.0328C13.1359 23.8645 13.2698 23.6645 13.3612 23.4444C13.4526 23.2243 13.4996 22.9882 13.4996 22.7499C13.4996 22.5115 13.4526 22.2755 13.3612 22.0554C13.2698 21.8352 13.1359 21.6353 12.9671 21.467L9.50505 18.0032Z" fill="white"/>
</svg>
