<svg width="22" height="19" viewBox="0 0 22 19" fill="none" xmlns="http://www.w3.org/2000/svg">
<path fill-rule="evenodd" clip-rule="evenodd" d="M16.0018 18.4777C17.2599 19.0282 17.7317 17.8749 17.7317 17.8749L21.0605 1.15221C21.0343 0.0251352 19.5141 0.706624 19.5141 0.706624L0.878004 8.01952C0.878004 8.01952 -0.0131728 8.33405 0.0654605 8.88449C0.144094 9.43492 0.851793 9.69703 0.851793 9.69703L5.54358 11.2697C5.54358 11.2697 6.95898 15.9091 7.2473 16.8002C7.50941 17.6652 7.74531 17.6914 7.74531 17.6914C8.00742 17.7963 8.24332 17.6128 8.24332 17.6128L11.2838 14.8606L16.0018 18.4777ZM16.8133 4.11401C16.8133 4.11401 17.4686 3.72084 17.4424 4.11401C17.4424 4.11401 17.5472 4.16643 17.2065 4.53339C16.892 4.84792 9.47423 11.5055 8.47821 12.3967C8.39957 12.4491 8.34715 12.5278 8.34715 12.6326L8.05883 15.0965C8.00641 15.3586 7.66566 15.3848 7.58703 15.1489L6.35511 11.1124C6.30269 10.9551 6.35511 10.7716 6.51237 10.6668L16.8133 4.11401Z" fill="white"/>
</svg>
