<svg width="22" height="18" viewBox="0 0 22 18" fill="none" xmlns="http://www.w3.org/2000/svg">
<path d="M19.3219 4.67383C19.3219 4.8707 19.3219 5.06758 19.3219 5.23633C19.3219 11.0582 14.8781 17.7801 6.77813 17.7801C4.275 17.7801 1.96875 17.0488 0 15.8113C0.3375 15.8395 0.703125 15.8676 1.04062 15.8676C3.09375 15.8676 5.00625 15.1645 6.525 13.9832C4.58437 13.9551 2.95312 12.6613 2.41875 10.9176C2.7 10.9738 2.95312 11.002 3.2625 11.002C3.65625 11.002 4.05 10.9457 4.41563 10.8332C2.39062 10.4395 0.871875 8.66758 0.871875 6.53008C0.871875 6.50195 0.871875 6.50195 0.871875 6.47383C1.4625 6.81133 2.1375 7.0082 2.86875 7.03633C1.6875 6.24883 0.9 4.89883 0.9 3.35195C0.9 2.53633 1.125 1.77695 1.49063 1.13008C3.65625 3.80195 6.91875 5.5457 10.575 5.74258C10.4906 5.4332 10.4625 5.06758 10.4625 4.73008C10.4625 2.2832 12.4312 0.314453 14.8781 0.314453C16.1437 0.314453 17.2969 0.848828 18.0844 1.69258C19.0969 1.4957 20.025 1.13008 20.8969 0.623828C20.5594 1.66445 19.8562 2.5082 18.9562 3.0707C19.8562 2.9582 20.7 2.7332 21.4875 2.36758C20.925 3.26758 20.1938 4.05508 19.3219 4.67383Z" fill="white"/>
</svg>
