<svg width="25" height="25" viewBox="0 0 25 25" fill="none" xmlns="http://www.w3.org/2000/svg">
<g id="Iconly/Light-Outline/Profile">
<g id="Profile">
<g id="Group 3">
<mask id="mask0" mask-type="alpha" maskUnits="userSpaceOnUse" x="4" y="14" width="17" height="9">
<path id="Clip 2" fill-rule="evenodd" clip-rule="evenodd" d="M4.5 14.9961H20.3399V22.3701H4.5V14.9961Z" fill="white"/>
</mask>
<g mask="url(#mask0)">
<path id="Fill 1" fill-rule="evenodd" clip-rule="evenodd" d="M12.421 16.4961C8.16 16.4961 6 17.2281 6 18.6731C6 20.1311 8.16 20.8701 12.421 20.8701C16.681 20.8701 18.84 20.1381 18.84 18.6931C18.84 17.2351 16.681 16.4961 12.421 16.4961ZM12.421 22.3701C10.462 22.3701 4.5 22.3701 4.5 18.6731C4.5 15.3771 9.021 14.9961 12.421 14.9961C14.38 14.9961 20.34 14.9961 20.34 18.6931C20.34 21.9891 15.82 22.3701 12.421 22.3701Z" fill="black"/>
</g>
</g>
<g id="Group 6">
<mask id="mask1" mask-type="alpha" maskUnits="userSpaceOnUse" x="7" y="2" width="11" height="12">
<path id="Clip 5" fill-rule="evenodd" clip-rule="evenodd" d="M7.11035 2.50012H17.7304V13.1187H7.11035V2.50012Z" fill="white"/>
</mask>
<g mask="url(#mask1)">
<path id="Fill 4" fill-rule="evenodd" clip-rule="evenodd" d="M12.4214 3.92776C10.2804 3.92776 8.53838 5.66876 8.53838 7.80976C8.53138 9.94376 10.2604 11.6838 12.3924 11.6918L12.4214 12.4058V11.6918C14.5614 11.6918 16.3024 9.94976 16.3024 7.80976C16.3024 5.66876 14.5614 3.92776 12.4214 3.92776ZM12.4214 13.1188H12.3894C9.46738 13.1098 7.10038 10.7268 7.11038 7.80676C7.11038 4.88176 9.49238 2.49976 12.4214 2.49976C15.3494 2.49976 17.7304 4.88176 17.7304 7.80976C17.7304 10.7378 15.3494 13.1188 12.4214 13.1188Z" fill="black"/>
</g>
</g>
</g>
</g>
</svg>
