<svg width="25" height="25" viewBox="0 0 25 25" fill="none" xmlns="http://www.w3.org/2000/svg">
<g id="Iconly/Light-Outline/3 User">
<g id="3 User">
<path id="Fill 1" fill-rule="evenodd" clip-rule="evenodd" d="M18.387 12.6465C18.019 12.6465 17.698 12.3755 17.645 12.0005C17.588 11.5895 17.873 11.2105 18.284 11.1535C19.324 11.0075 20.109 10.1055 20.111 9.05351C20.111 8.01051 19.363 7.12851 18.332 6.95951C17.924 6.89251 17.647 6.50651 17.714 6.09751C17.782 5.68851 18.165 5.41451 18.576 5.47951C20.334 5.76851 21.611 7.27251 21.611 9.05551C21.607 10.8505 20.266 12.3905 18.491 12.6395C18.456 12.6445 18.421 12.6465 18.387 12.6465Z" fill="black"/>
<g id="Group 5">
<mask id="mask0" mask-type="alpha" maskUnits="userSpaceOnUse" x="19" y="14" width="5" height="6">
<path id="Clip 4" fill-rule="evenodd" clip-rule="evenodd" d="M19.4785 14.5016H23.2725V19.0312H19.4785V14.5016Z" fill="white"/>
</mask>
<g mask="url(#mask0)">
<path id="Fill 3" fill-rule="evenodd" clip-rule="evenodd" d="M21.3618 19.0312C21.0598 19.0312 20.7748 18.8472 20.6608 18.5482C20.5128 18.1612 20.7078 17.7272 21.0948 17.5802C21.7728 17.3222 21.7728 17.0372 21.7728 16.9002C21.7728 16.4622 21.2158 16.1562 20.1178 15.9922C19.7088 15.9302 19.4258 15.5492 19.4868 15.1382C19.5478 14.7282 19.9278 14.4552 20.3408 14.5082C22.7638 14.8712 23.2728 16.0092 23.2728 16.9002C23.2728 17.4442 23.0588 18.4372 21.6288 18.9822C21.5408 19.0152 21.4508 19.0312 21.3618 19.0312Z" fill="black"/>
</g>
</g>
<path id="Fill 6" fill-rule="evenodd" clip-rule="evenodd" d="M12.3867 16.4139C10.0107 16.4139 7.17773 16.7059 7.17773 18.0959C7.17773 19.4969 10.0107 19.7909 12.3867 19.7909C14.7627 19.7909 17.5947 19.4999 17.5947 18.1129C17.5947 16.7089 14.7627 16.4139 12.3867 16.4139ZM12.3867 21.2909C10.7277 21.2909 5.67773 21.2909 5.67773 18.0959C5.67773 14.9139 10.7277 14.9139 12.3867 14.9139C14.0457 14.9139 19.0947 14.9139 19.0947 18.1129C19.0947 21.2909 14.2217 21.2909 12.3867 21.2909Z" fill="black"/>
<path id="Fill 8" fill-rule="evenodd" clip-rule="evenodd" d="M12.3864 6C10.6944 6 9.3184 7.377 9.3184 9.069C9.3154 9.889 9.6294 10.656 10.2044 11.235C10.7794 11.814 11.5454 12.135 12.3614 12.138L12.3864 12.888V12.138C14.0784 12.138 15.4554 10.762 15.4554 9.069C15.4554 7.377 14.0784 6 12.3864 6ZM12.3864 13.638H12.3594C11.1394 13.634 9.9964 13.156 9.1404 12.292C8.2824 11.429 7.8134 10.283 7.8184 9.066C7.8184 6.55 9.8674 4.5 12.3864 4.5C14.9064 4.5 16.9554 6.55 16.9554 9.069C16.9554 11.588 14.9064 13.638 12.3864 13.638Z" fill="black"/>
<path id="Fill 10" fill-rule="evenodd" clip-rule="evenodd" d="M6.38609 12.6465C6.35209 12.6465 6.31709 12.6445 6.28209 12.6395C4.50709 12.3905 3.16709 10.8505 3.16309 9.05745C3.16309 7.27245 4.44009 5.76845 6.19809 5.47945C6.61909 5.41345 6.99209 5.69045 7.06009 6.09745C7.12709 6.50645 6.85009 6.89245 6.44209 6.95945C5.41109 7.12845 4.66309 8.01045 4.66309 9.05545C4.66509 10.1054 5.45009 11.0085 6.48909 11.1535C6.90009 11.2105 7.18509 11.5894 7.12809 12.0005C7.07509 12.3755 6.75409 12.6465 6.38609 12.6465Z" fill="black"/>
<path id="Fill 12" fill-rule="evenodd" clip-rule="evenodd" d="M3.412 19.0312C3.323 19.0312 3.233 19.0152 3.145 18.9822C1.714 18.4362 1.5 17.4432 1.5 16.9002C1.5 16.0102 2.009 14.8712 4.433 14.5082C4.846 14.4562 5.224 14.7282 5.286 15.1382C5.347 15.5492 5.064 15.9302 4.655 15.9922C3.557 16.1562 3 16.4622 3 16.9002C3 17.0372 3 17.3212 3.679 17.5802C4.066 17.7272 4.261 18.1612 4.113 18.5482C3.999 18.8472 3.714 19.0312 3.412 19.0312Z" fill="black"/>
</g>
</g>
</svg>
