<svg width="23" height="25" viewBox="0 0 23 25" fill="none" xmlns="http://www.w3.org/2000/svg">
<path d="M20.3155 2.70286C19.7201 2.15546 17.3096 0.40282 11.9364 0.378811C11.9364 0.378811 5.60291 -0.00532967 2.51538 2.82771C0.796353 4.54674 0.191332 7.05805 0.128909 10.1792C0.0664865 13.2955 -0.0151438 19.1393 5.61732 20.7239H5.62212L5.61732 23.1391C5.61732 23.1391 5.5837 24.1187 6.22714 24.3156C7.00502 24.5557 7.46599 23.8114 8.21026 23.0095C8.61841 22.5677 9.18022 21.9243 9.60758 21.4297C13.4586 21.7514 16.4213 21.012 16.7574 20.9015C17.5353 20.647 21.9385 20.0852 22.6539 14.2415C23.3934 8.22968 22.2938 4.42189 20.3155 2.70286ZM20.9685 13.8189C20.3635 18.6975 16.7958 19.0048 16.138 19.2161C15.8595 19.3073 13.2569 19.9556 9.98211 19.7395C9.98211 19.7395 7.54282 22.683 6.78414 23.4464C6.6641 23.5665 6.52485 23.6145 6.43361 23.5905C6.30397 23.5569 6.26555 23.4032 6.27036 23.1775C6.27036 22.851 6.28956 19.1585 6.28956 19.1585C6.28476 19.1585 6.28476 19.1585 6.28956 19.1585C1.52142 17.838 1.79992 12.8634 1.85274 10.2608C1.90556 7.65827 2.39534 5.52149 3.85027 4.08577C6.45762 1.7233 11.8404 2.07383 11.8404 2.07383C16.3829 2.09304 18.558 3.46154 19.0622 3.91771C20.738 5.35823 21.5928 8.79149 20.9685 13.8189Z" fill="white"/>
<path d="M14.1493 10.3521C13.9909 10.3521 13.8564 10.2272 13.8468 10.064C13.794 9.03158 13.309 8.5274 12.3199 8.47458C12.1518 8.46498 12.0221 8.32093 12.0318 8.15286C12.0414 7.9848 12.1854 7.85516 12.3535 7.86476C13.6595 7.93679 14.3894 8.68586 14.4566 10.0304C14.4662 10.1984 14.3366 10.3425 14.1685 10.3473C14.1589 10.3521 14.1541 10.3521 14.1493 10.3521Z" fill="white"/>
<path d="M15.7058 10.8707H15.701C15.5329 10.8659 15.3984 10.7266 15.4032 10.5586C15.4273 9.52137 15.1295 8.68107 14.4957 7.98961C13.8667 7.29816 12.9976 6.92362 11.8499 6.84199C11.6819 6.82759 11.557 6.68353 11.5714 6.51547C11.5858 6.34741 11.7299 6.22257 11.898 6.23697C13.1944 6.33301 14.2172 6.78437 14.9471 7.58146C15.6817 8.38336 16.0371 9.38692 16.0131 10.573C16.0083 10.741 15.869 10.8707 15.7058 10.8707Z" fill="white"/>
<path d="M17.3014 11.4948C17.1334 11.4948 16.9989 11.3604 16.9989 11.1923C16.9845 9.33406 16.4515 7.91754 15.3663 6.85635C14.2955 5.80957 12.9367 5.27657 11.3377 5.26217C11.1696 5.26217 11.0352 5.12292 11.0352 4.95485C11.0352 4.78679 11.1744 4.65234 11.3377 4.65234C13.0999 4.66675 14.5981 5.25737 15.7841 6.41939C16.9749 7.58142 17.5848 9.1852 17.604 11.1827C17.6088 11.3556 17.4743 11.4948 17.3014 11.4948C17.3063 11.4948 17.3063 11.4948 17.3014 11.4948Z" fill="white"/>
<path d="M12.394 14.1117C12.394 14.1117 12.8213 14.1501 13.0518 13.8668L13.4984 13.305C13.7144 13.0265 14.2378 12.8489 14.7468 13.1322C15.0301 13.2906 15.5439 13.6075 15.8608 13.8428C16.2018 14.0925 16.8932 14.6687 16.898 14.6735C17.2293 14.952 17.3062 15.3602 17.0805 15.7971C17.0805 15.7971 17.0805 15.8019 17.0805 15.8067C16.85 16.2149 16.5379 16.599 16.1489 16.9544C16.1441 16.9544 16.1441 16.9592 16.1393 16.9592C15.8176 17.2281 15.5007 17.3817 15.1934 17.4153C15.155 17.4249 15.1118 17.4249 15.0541 17.4249C14.9197 17.4249 14.7852 17.4057 14.6508 17.3625L14.6412 17.3481C14.161 17.2137 13.3639 16.8775 12.0386 16.1429C11.1743 15.6675 10.4589 15.1825 9.84903 14.6975C9.52732 14.443 9.2008 14.1597 8.86467 13.8236C8.85507 13.814 8.84066 13.7996 8.83106 13.79C8.82146 13.7804 8.80705 13.766 8.79745 13.7564C8.78784 13.7468 8.77344 13.7324 8.76384 13.7228C8.75423 13.7132 8.73983 13.6988 8.73022 13.6892C8.3989 13.353 8.1108 13.0265 7.8563 12.7048C7.37133 12.0998 6.88635 11.3795 6.41097 10.5152C5.67631 9.18512 5.34018 8.38803 5.20573 7.91266L5.19133 7.90306C5.14811 7.76861 5.12891 7.63416 5.12891 7.49971C5.12891 7.44209 5.12891 7.39887 5.13851 7.36046C5.17692 7.04834 5.33058 6.73623 5.59468 6.41451C5.59468 6.40971 5.59948 6.40971 5.59948 6.40491C5.95481 6.01116 6.33895 5.70385 6.7471 5.47337C6.7471 5.47337 6.7519 5.47337 6.7567 5.47337C7.18886 5.24768 7.59701 5.32451 7.88031 5.65583C7.88031 5.65583 8.46133 6.35209 8.71102 6.69301C8.9463 7.01473 9.26322 7.52372 9.42168 7.80702C9.70498 8.31601 9.52732 8.8394 9.24881 9.05548L8.68701 9.50204C8.4037 9.73252 8.44212 10.1599 8.44212 10.1599C8.44212 10.1599 9.27282 13.3194 12.394 14.1117Z" fill="white"/>
</svg>
