<svg width="25" height="15" viewBox="0 0 25 15" fill="none" xmlns="http://www.w3.org/2000/svg">
<path fill-rule="evenodd" clip-rule="evenodd" d="M23.9493 0.965345C24.1163 0.40909 23.9494 0.000244141 23.1553 0.000244141H20.5297C19.862 0.000244141 19.5544 0.353389 19.3875 0.742917C19.3875 0.742917 18.0522 3.99736 16.1607 6.11136C15.5487 6.72331 15.2706 6.9178 14.9367 6.9178C14.7698 6.9178 14.5283 6.72331 14.5283 6.16706V0.965345C14.5283 0.297689 14.3345 0.000244141 13.7781 0.000244141H9.65214C9.23504 0.000244141 8.98411 0.310067 8.98411 0.60376C8.98411 1.23672 9.9297 1.38263 10.0272 3.16279V7.02939C10.0272 7.87708 9.87419 8.03087 9.54036 8.03087C8.65028 8.03087 6.48527 4.76161 5.20097 1.02105C4.94929 0.293938 4.69685 0.000244141 4.02582 0.000244141H1.40021C0.650035 0.000244141 0.5 0.353389 0.5 0.742917C0.5 1.43833 1.39027 4.88764 4.64472 9.44945C6.8146 12.5646 9.87119 14.2536 12.6528 14.2536C14.322 14.2536 14.5283 13.8785 14.5283 13.2324V10.8778C14.5283 10.1276 14.6864 9.97795 15.2147 9.97795C15.6044 9.97795 16.2719 10.1726 17.8298 11.6747C19.61 13.4546 19.9033 14.2536 20.9048 14.2536H23.5304C24.2806 14.2536 24.6556 13.8785 24.4392 13.1382C24.2025 12.4004 23.3526 11.3303 22.2247 10.0614C21.6127 9.33805 20.6947 8.55918 20.4168 8.16984C20.0272 7.6691 20.1385 7.44667 20.4168 7.00182C20.4168 7.00182 23.6155 2.49551 23.9493 0.965533V0.965345Z" fill="white"/>
</svg>
