<svg width="22" height="22" viewBox="0 0 22 22" fill="none" xmlns="http://www.w3.org/2000/svg">
<path d="M18.0638 3.47307C16.1341 1.48658 13.4665 0.408203 10.7422 0.408203C4.953 0.408203 0.298944 5.11901 0.355701 10.8514C0.355701 12.6677 0.866512 14.4271 1.71786 16.0163L0.242188 21.4082L5.74759 19.9893C7.28003 20.8406 8.98273 21.2379 10.6854 21.2379C16.4179 21.2379 21.0719 16.5271 21.0719 10.7947C21.0719 8.01361 19.9935 5.4028 18.0638 3.47307ZM10.7422 19.4785C9.20975 19.4785 7.67732 19.0812 6.37192 18.2866L6.03138 18.1163L2.73949 18.9677L3.59084 15.7325L3.36381 15.392C0.866512 11.3623 2.0584 6.02712 6.14489 3.52982C10.2314 1.03253 15.5098 2.22442 18.0071 6.31091C20.5044 10.3974 19.3125 15.6758 15.226 18.1731C13.9206 19.0244 12.3314 19.4785 10.7422 19.4785ZM15.7368 13.1785L15.1125 12.8947C15.1125 12.8947 14.2044 12.4974 13.6368 12.2136C13.58 12.2136 13.5233 12.1569 13.4665 12.1569C13.2962 12.1569 13.1827 12.2136 13.0692 12.2704C13.0692 12.2704 13.0125 12.3271 12.2179 13.2352C12.1611 13.3487 12.0476 13.4055 11.9341 13.4055H11.8773C11.8206 13.4055 11.7071 13.3487 11.6503 13.292L11.3665 13.1785C10.7422 12.8947 10.1746 12.5541 9.72057 12.1001C9.60705 11.9866 9.43678 11.8731 9.32327 11.7596C8.92597 11.3623 8.52867 10.9082 8.24489 10.3974L8.18813 10.2839C8.13138 10.2271 8.13138 10.1704 8.07462 10.0569C8.07462 9.94334 8.07462 9.82983 8.13138 9.77307C8.13138 9.77307 8.3584 9.48928 8.52867 9.31901C8.64219 9.2055 8.69895 9.03523 8.81246 8.92172C8.92597 8.75145 8.98273 8.52442 8.92597 8.35415C8.86921 8.07037 8.18813 6.53793 8.01786 6.19739C7.90435 6.02712 7.79084 5.97037 7.62057 5.91361H7.4503C7.33678 5.91361 7.16651 5.91361 6.99624 5.91361C6.88273 5.91361 6.76921 5.97037 6.6557 5.97037L6.59894 6.02712C6.48543 6.08388 6.37192 6.19739 6.2584 6.25415C6.14489 6.36766 6.08813 6.48118 5.97462 6.59469C5.57732 7.1055 5.3503 7.72983 5.3503 8.35415C5.3503 8.8082 5.46381 9.26226 5.63408 9.65955L5.69084 9.82983C6.20165 10.9082 6.88273 11.8731 7.79084 12.7244L8.01786 12.9514C8.18813 13.1217 8.3584 13.2352 8.47192 13.4055C9.66381 14.4271 11.026 15.165 12.5584 15.5623C12.7287 15.619 12.9557 15.619 13.126 15.6758C13.2962 15.6758 13.5233 15.6758 13.6935 15.6758C13.9773 15.6758 14.3179 15.5623 14.5449 15.4487C14.7152 15.3352 14.8287 15.3352 14.9422 15.2217L15.0557 15.1082C15.1692 14.9947 15.2827 14.9379 15.3962 14.8244C15.5098 14.7109 15.6233 14.5974 15.68 14.4839C15.7935 14.2569 15.8503 13.9731 15.9071 13.6893C15.9071 13.5758 15.9071 13.4055 15.9071 13.292C15.9071 13.292 15.8503 13.2352 15.7368 13.1785Z" fill="white"/>
</svg>
