<svg width="23" height="17" viewBox="0 0 23 17" fill="none" xmlns="http://www.w3.org/2000/svg">
<path fill-rule="evenodd" clip-rule="evenodd" d="M20.3035 1.1695C21.2672 1.42897 22.0271 2.18885 22.2866 3.1526C22.7684 4.9133 22.7499 8.58298 22.7499 8.58298C22.7499 8.58298 22.7499 12.2341 22.2866 13.9948C22.0271 14.9586 21.2672 15.7184 20.3035 15.9779C18.5428 16.4413 11.5 16.4413 11.5 16.4413C11.5 16.4413 4.47568 16.4413 2.69645 15.9594C1.7327 15.6999 0.972814 14.94 0.713342 13.9763C0.25 12.2341 0.25 8.56444 0.25 8.56444C0.25 8.56444 0.25 4.9133 0.713342 3.1526C0.972814 2.18885 1.75123 1.41044 2.69645 1.15096C4.45715 0.687622 11.5 0.687622 11.5 0.687622C11.5 0.687622 18.5428 0.687622 20.3035 1.1695ZM15.114 8.56442L9.25732 11.9375V5.19128L15.114 8.56442Z" fill="white"/>
</svg>
